<svg xmlns="http://www.w3.org/2000/svg" version="1.1" xmlns:xlink="http://www.w3.org/1999/xlink" xmlns:svgjs="http://svgjs.dev/svgjs" width="1440" height="700" preserveAspectRatio="none" viewBox="0 0 1440 700"><g mask="url(&quot;#SvgjsMask2188&quot;)" fill="none"><rect width="1440" height="700" x="0" y="0" fill="url(&quot;#SvgjsLinearGradient2189&quot;)"></rect><path d="M1440 0L940.99 0L1440 86.78z" fill="rgba(255, 255, 255, .1)"></path><path d="M940.99 0L1440 86.78L1440 249.7L561.51 0z" fill="rgba(255, 255, 255, .075)"></path><path d="M561.51 0L1440 249.7L1440 416.03L424.49 0z" fill="rgba(255, 255, 255, .05)"></path><path d="M424.49 0L1440 416.03L1440 455.2L329.9 0z" fill="rgba(255, 255, 255, .025)"></path><path d="M0 700L228.08 700L0 531.64z" fill="rgba(0, 0, 0, .1)"></path><path d="M0 531.64L228.08 700L683.51 700L0 527.46z" fill="rgba(0, 0, 0, .075)"></path><path d="M0 527.46L683.51 700L1128.6100000000001 700L0 305.94000000000005z" fill="rgba(0, 0, 0, .05)"></path><path d="M0 305.93999999999994L1128.6100000000001 700L1249.71 700L0 194.91999999999996z" fill="rgba(0, 0, 0, .025)"></path></g><defs><mask id="SvgjsMask2188"><rect width="1440" height="700" fill="#ffffff"></rect></mask><linearGradient x1="87.15%" y1="126.43%" x2="12.85%" y2="-26.43%" gradientUnits="userSpaceOnUse" id="SvgjsLinearGradient2189"><stop stop-color="rgba(37, 100, 165, 1)" offset="0.11"></stop><stop stop-color="rgba(229, 151, 255, 1)" offset="1"></stop></linearGradient></defs></svg>